<?xml version="1.0" standalone="no"?>
<!DOCTYPE svg PUBLIC "-//W3C//DTD SVG 20010904//EN"
 "http://www.w3.org/TR/2001/REC-SVG-20010904/DTD/svg10.dtd">
<svg version="1.0" xmlns="http://www.w3.org/2000/svg"
 width="818.000000pt" height="730.000000pt" viewBox="0 0 818.000000 730.000000"
 preserveAspectRatio="xMidYMid meet">

<g transform="translate(0.000000,730.000000) scale(0.100000,-0.100000)"
fill="#000000" stroke="none">
<path fill="white" d="M3905 6674 c-705 -57 -1319 -336 -1806 -823 -460 -460 -738 -1044
-809 -1695 -14 -129 -14 -465 0 -592 39 -353 136 -674 298 -989 134 -258 278
-459 482 -669 444 -457 995 -738 1635 -833 170 -25 600 -25 770 0 640 95 1191
376 1635 833 204 210 348 411 482 669 164 320 261 644 299 1003 15 150 7 561
-15 702 -95 603 -368 1144 -795 1571 -443 443 -1008 722 -1626 804 -117 15
-450 27 -550 19z m1098 -1067 c257 -43 455 -148 608 -322 123 -140 198 -325
231 -575 19 -136 18 -1553 0 -1697 -63 -493 -334 -794 -796 -884 -135 -26
-439 -39 -956 -39 -517 0 -821 13 -956 39 -332 65 -564 237 -695 515 -47 102
-84 235 -101 369 -18 144 -19 1561 0 1697 37 281 121 467 281 627 179 179 395
263 736 287 28 2 388 2 800 1 644 -1 764 -4 848 -18z"/>
<path fill="white" d="M3295 5299 c-106 -10 -248 -49 -319 -87 -79 -41 -205 -174 -244 -255
-45 -93 -71 -214 -82 -370 -13 -178 -12 -1266 0 -1448 6 -81 19 -181 30 -223
73 -287 269 -446 600 -488 150 -19 1470 -19 1620 0 331 42 527 201 600 488 11
42 24 142 30 223 12 182 13 1270 0 1448 -11 156 -37 277 -82 370 -39 81 -165
214 -243 255 -77 41 -210 75 -336 87 -136 13 -1439 13 -1574 0z m1857 -315
c137 -96 122 -292 -29 -368 -18 -9 -56 -16 -88 -16 -97 0 -175 57 -201 148
-25 86 3 176 70 227 47 35 80 45 149 42 44 -3 66 -10 99 -33z m-884 -230 c185
-38 318 -110 458 -249 112 -111 166 -193 214 -324 178 -487 -75 -1018 -561
-1179 -366 -120 -762 -3 -1001 296 -233 293 -260 708 -67 1036 53 91 220 257
309 309 82 47 195 91 285 110 94 21 267 21 363 1z"/>
<path fill="white" d="M3941 4434 c-137 -37 -281 -143 -350 -258 -65 -108 -84 -178 -85
-306 -1 -136 22 -223 86 -323 112 -172 293 -271 498 -271 257 0 473 156 561
404 20 54 23 84 23 185 0 104 -4 129 -26 187 -74 195 -223 333 -413 383 -74
19 -222 19 -294 -1z"/>
</g>
</svg>
