<?xml version="1.0" standalone="no"?>
<!DOCTYPE svg PUBLIC "-//W3C//DTD SVG 20010904//EN"
 "http://www.w3.org/TR/2001/REC-SVG-20010904/DTD/svg10.dtd">
<svg version="1.0" xmlns="http://www.w3.org/2000/svg"
 width="752.000000pt" height="764.000000pt" viewBox="0 0 752.000000 764.000000"
 preserveAspectRatio="xMidYMid meet">

<g transform="translate(0.000000,764.000000) scale(0.100000,-0.100000)"
fill="#000000" stroke="none">
<path fill="white" d="M3765 6954 c-705 -57 -1319 -337 -1806 -823 -427 -427 -700 -967
-795 -1571 -25 -162 -31 -569 -10 -741 55 -449 200 -849 444 -1219 114 -173
188 -266 337 -419 439 -452 993 -734 1630 -828 170 -25 600 -25 770 0 644 95
1192 376 1641 840 411 423 671 950 759 1539 36 237 36 581 0 823 -133 900
-697 1685 -1503 2094 -297 150 -596 243 -917 286 -117 15 -450 27 -550 19z
m630 -1004 c888 -191 1486 -979 1424 -1876 -56 -802 -642 -1465 -1435 -1625
-138 -27 -419 -37 -561 -19 -184 23 -376 79 -554 162 l-86 40 -461 -121 c-254
-67 -465 -121 -470 -121 -5 0 46 201 114 448 68 246 123 453 124 460 0 7 -22
58 -49 115 -90 186 -147 382 -172 581 -17 140 -6 422 21 551 158 748 734 1299
1485 1420 138 22 488 14 620 -15z"/>
<path fill="white" d="M3810 5666 c-624 -112 -1089 -558 -1222 -1169 -32 -148 -32 -446 0
-594 38 -173 96 -319 193 -484 l39 -65 -74 -269 c-41 -149 -73 -271 -72 -272
1 -1 122 29 269 67 146 39 273 70 282 70 8 0 46 -17 83 -38 153 -87 339 -151
517 -178 134 -21 393 -14 520 15 552 122 990 539 1129 1073 39 151 49 254 43
438 -8 227 -42 372 -134 569 -156 337 -461 621 -813 757 -171 66 -280 85 -495
89 -131 3 -213 0 -265 -9z m-247 -664 c23 -25 177 -400 177 -430 0 -37 -27
-85 -81 -147 -70 -81 -73 -88 -50 -132 70 -136 232 -312 372 -406 91 -60 248
-137 281 -137 23 0 64 41 151 154 61 77 62 78 102 74 57 -7 410 -179 425 -208
13 -25 8 -82 -18 -175 -21 -80 -91 -151 -195 -201 -161 -76 -294 -69 -551 30
-144 56 -212 91 -322 165 -307 206 -634 612 -700 871 -48 183 2 376 128 496
62 59 73 63 174 64 75 0 94 -3 107 -18z"/>
</g>
</svg>
