<svg width="147" height="26" viewBox="0 0 147 26" fill="none" xmlns="http://www.w3.org/2000/svg">
<path d="M13.0437 0.029916C12.8797 0.081916 12.7077 0.181916 12.6157 0.281916C12.5637 0.333916 11.7037 2.04192 10.6997 4.07392C9.69574 6.10992 8.87174 7.77792 8.86774 7.78592C8.85974 7.78992 7.98375 7.92192 6.91974 8.07392C4.48774 8.42992 3.07574 8.63392 1.71574 8.83392C0.407744 9.02592 0.287744 9.07392 0.0877444 9.51392C-0.108256 9.94192 0.0197444 10.3259 0.515744 10.7979C0.787744 11.0579 4.94774 15.1059 5.79174 15.9339L6.11974 16.2539L5.86374 17.7339C5.44374 20.1859 4.97174 22.9259 4.83574 23.7339C4.71574 24.4379 4.71174 24.5099 4.76374 24.6939C4.84774 24.9939 5.15574 25.2899 5.45174 25.3539C5.76374 25.4259 5.91174 25.3779 6.62774 24.9979C6.95574 24.8259 8.33174 24.1019 9.68374 23.3939C11.0357 22.6859 12.3917 21.9699 12.6957 21.8099C12.9997 21.6459 13.2757 21.5139 13.3117 21.5139C13.3717 21.5139 13.6197 21.6419 17.5037 23.6859C21.0477 25.5499 20.6877 25.3739 20.9757 25.3699C21.4437 25.3699 21.8157 25.0539 21.8997 24.5899C21.9117 24.5099 21.8917 24.2539 21.8437 23.9899C21.8037 23.7379 21.6517 22.8499 21.5077 22.0139C21.3637 21.1779 21.0837 19.5419 20.8837 18.3739L20.5197 16.2539L21.0517 15.7339C21.3437 15.4459 22.5917 14.2339 23.8237 13.0339C26.4757 10.4579 26.4517 10.4819 26.5477 10.2859C26.6597 10.0659 26.6477 9.70592 26.5277 9.46192C26.4237 9.24592 26.1917 9.05392 25.9677 8.99792C25.8877 8.97392 24.0677 8.70592 21.9237 8.39392C19.7797 8.08592 17.9637 7.81792 17.8877 7.80592C17.7597 7.78592 17.7437 7.75792 17.4837 7.21792C17.3357 6.90992 16.6317 5.48192 15.9237 4.05392C15.2157 2.62192 14.5117 1.19792 14.3557 0.881916C14.0637 0.281916 13.9597 0.161916 13.6557 0.049916C13.4917 -0.00608397 13.1997 -0.018084 13.0437 0.029916Z" fill="white"/>
<path d="M43.0437 0.029916C42.8797 0.081916 42.7077 0.181916 42.6157 0.281916C42.5637 0.333916 41.7037 2.04192 40.6997 4.07392C39.6957 6.10992 38.8717 7.77792 38.8677 7.78592C38.8597 7.78992 37.9837 7.92192 36.9197 8.07392C34.4877 8.42992 33.0757 8.63392 31.7157 8.83392C30.4077 9.02592 30.2877 9.07392 30.0877 9.51392C29.8917 9.94192 30.0197 10.3259 30.5157 10.7979C30.7877 11.0579 34.9477 15.1059 35.7917 15.9339L36.1197 16.2539L35.8637 17.7339C35.4437 20.1859 34.9717 22.9259 34.8357 23.7339C34.7157 24.4379 34.7117 24.5099 34.7637 24.6939C34.8477 24.9939 35.1557 25.2899 35.4517 25.3539C35.7637 25.4259 35.9117 25.3779 36.6277 24.9979C36.9557 24.8259 38.3317 24.1019 39.6837 23.3939C41.0357 22.6859 42.3917 21.9699 42.6957 21.8099C42.9997 21.6459 43.2757 21.5139 43.3117 21.5139C43.3717 21.5139 43.6197 21.6419 47.5037 23.6859C51.0477 25.5499 50.6877 25.3739 50.9757 25.3699C51.4437 25.3699 51.8157 25.0539 51.8997 24.5899C51.9117 24.5099 51.8917 24.2539 51.8437 23.9899C51.8037 23.7379 51.6517 22.8499 51.5077 22.0139C51.3637 21.1779 51.0837 19.5419 50.8837 18.3739L50.5197 16.2539L51.0517 15.7339C51.3437 15.4459 52.5917 14.2339 53.8237 13.0339C56.4757 10.4579 56.4517 10.4819 56.5477 10.2859C56.6597 10.0659 56.6477 9.70592 56.5277 9.46192C56.4237 9.24592 56.1917 9.05392 55.9677 8.99792C55.8877 8.97392 54.0677 8.70592 51.9237 8.39392C49.7797 8.08592 47.9637 7.81792 47.8877 7.80592C47.7597 7.78592 47.7437 7.75792 47.4837 7.21792C47.3357 6.90992 46.6317 5.48192 45.9237 4.05392C45.2157 2.62192 44.5117 1.19792 44.3557 0.881916C44.0637 0.281916 43.9597 0.161916 43.6557 0.049916C43.4917 -0.00608397 43.1997 -0.018084 43.0437 0.029916Z" fill="white"/>
<path d="M73.0437 0.029916C72.8797 0.081916 72.7077 0.181916 72.6157 0.281916C72.5637 0.333916 71.7037 2.04192 70.6997 4.07392C69.6957 6.10992 68.8717 7.77792 68.8677 7.78592C68.8597 7.78992 67.9837 7.92192 66.9197 8.07392C64.4877 8.42992 63.0757 8.63392 61.7157 8.83392C60.4077 9.02592 60.2877 9.07392 60.0877 9.51392C59.8917 9.94192 60.0197 10.3259 60.5157 10.7979C60.7877 11.0579 64.9477 15.1059 65.7917 15.9339L66.1197 16.2539L65.8637 17.7339C65.4437 20.1859 64.9717 22.9259 64.8357 23.7339C64.7157 24.4379 64.7117 24.5099 64.7637 24.6939C64.8477 24.9939 65.1557 25.2899 65.4517 25.3539C65.7637 25.4259 65.9117 25.3779 66.6277 24.9979C66.9557 24.8259 68.3317 24.1019 69.6837 23.3939C71.0357 22.6859 72.3917 21.9699 72.6957 21.8099C72.9997 21.6459 73.2757 21.5139 73.3117 21.5139C73.3717 21.5139 73.6197 21.6419 77.5037 23.6859C81.0477 25.5499 80.6877 25.3739 80.9757 25.3699C81.4437 25.3699 81.8157 25.0539 81.8997 24.5899C81.9117 24.5099 81.8917 24.2539 81.8437 23.9899C81.8037 23.7379 81.6517 22.8499 81.5077 22.0139C81.3637 21.1779 81.0837 19.5419 80.8837 18.3739L80.5197 16.2539L81.0517 15.7339C81.3437 15.4459 82.5917 14.2339 83.8237 13.0339C86.4757 10.4579 86.4517 10.4819 86.5477 10.2859C86.6597 10.0659 86.6477 9.70592 86.5277 9.46192C86.4237 9.24592 86.1917 9.05392 85.9677 8.99792C85.8877 8.97392 84.0677 8.70592 81.9237 8.39392C79.7797 8.08592 77.9637 7.81792 77.8877 7.80592C77.7597 7.78592 77.7437 7.75792 77.4837 7.21792C77.3357 6.90992 76.6317 5.48192 75.9237 4.05392C75.2157 2.62192 74.5117 1.19792 74.3557 0.881916C74.0637 0.281916 73.9597 0.161916 73.6557 0.049916C73.4917 -0.00608397 73.1997 -0.018084 73.0437 0.029916Z" fill="#4B4B4B"/>
<path d="M103.044 0.029916C102.88 0.081916 102.708 0.181916 102.616 0.281916C102.564 0.333916 101.704 2.04192 100.7 4.07392C99.6957 6.10992 98.8717 7.77792 98.8677 7.78592C98.8597 7.78992 97.9837 7.92192 96.9197 8.07392C94.4877 8.42992 93.0757 8.63392 91.7157 8.83392C90.4077 9.02592 90.2877 9.07392 90.0877 9.51392C89.8917 9.94192 90.0197 10.3259 90.5157 10.7979C90.7877 11.0579 94.9477 15.1059 95.7917 15.9339L96.1197 16.2539L95.8637 17.7339C95.4437 20.1859 94.9717 22.9259 94.8357 23.7339C94.7157 24.4379 94.7117 24.5099 94.7637 24.6939C94.8477 24.9939 95.1557 25.2899 95.4517 25.3539C95.7637 25.4259 95.9117 25.3779 96.6277 24.9979C96.9557 24.8259 98.3317 24.1019 99.6837 23.3939C101.036 22.6859 102.392 21.9699 102.696 21.8099C103 21.6459 103.276 21.5139 103.312 21.5139C103.372 21.5139 103.62 21.6419 107.504 23.6859C111.048 25.5499 110.688 25.3739 110.976 25.3699C111.444 25.3699 111.816 25.0539 111.9 24.5899C111.912 24.5099 111.892 24.2539 111.844 23.9899C111.804 23.7379 111.652 22.8499 111.508 22.0139C111.364 21.1779 111.084 19.5419 110.884 18.3739L110.52 16.2539L111.052 15.7339C111.344 15.4459 112.592 14.2339 113.824 13.0339C116.476 10.4579 116.452 10.4819 116.548 10.2859C116.66 10.0659 116.648 9.70592 116.528 9.46192C116.424 9.24592 116.192 9.05392 115.968 8.99792C115.888 8.97392 114.068 8.70592 111.924 8.39392C109.78 8.08592 107.964 7.81792 107.888 7.80592C107.76 7.78592 107.744 7.75792 107.484 7.21792C107.336 6.90992 106.632 5.48192 105.924 4.05392C105.216 2.62192 104.512 1.19792 104.356 0.881916C104.064 0.281916 103.96 0.161916 103.656 0.049916C103.492 -0.00608397 103.2 -0.018084 103.044 0.029916Z" fill="#4B4B4B"/>
<path d="M133.044 0.029916C132.88 0.081916 132.708 0.181916 132.616 0.281916C132.564 0.333916 131.704 2.04192 130.7 4.07392C129.696 6.10992 128.872 7.77792 128.868 7.78592C128.86 7.78992 127.984 7.92192 126.92 8.07392C124.488 8.42992 123.076 8.63392 121.716 8.83392C120.408 9.02592 120.288 9.07392 120.088 9.51392C119.892 9.94192 120.02 10.3259 120.516 10.7979C120.788 11.0579 124.948 15.1059 125.792 15.9339L126.12 16.2539L125.864 17.7339C125.444 20.1859 124.972 22.9259 124.836 23.7339C124.716 24.4379 124.712 24.5099 124.764 24.6939C124.848 24.9939 125.156 25.2899 125.452 25.3539C125.764 25.4259 125.912 25.3779 126.628 24.9979C126.956 24.8259 128.332 24.1019 129.684 23.3939C131.036 22.6859 132.392 21.9699 132.696 21.8099C133 21.6459 133.276 21.5139 133.312 21.5139C133.372 21.5139 133.62 21.6419 137.504 23.6859C141.048 25.5499 140.688 25.3739 140.976 25.3699C141.444 25.3699 141.816 25.0539 141.9 24.5899C141.912 24.5099 141.892 24.2539 141.844 23.9899C141.804 23.7379 141.652 22.8499 141.508 22.0139C141.364 21.1779 141.084 19.5419 140.884 18.3739L140.52 16.2539L141.052 15.7339C141.344 15.4459 142.592 14.2339 143.824 13.0339C146.476 10.4579 146.452 10.4819 146.548 10.2859C146.66 10.0659 146.648 9.70592 146.528 9.46192C146.424 9.24592 146.192 9.05392 145.968 8.99792C145.888 8.97392 144.068 8.70592 141.924 8.39392C139.78 8.08592 137.964 7.81792 137.888 7.80592C137.76 7.78592 137.744 7.75792 137.484 7.21792C137.336 6.90992 136.632 5.48192 135.924 4.05392C135.216 2.62192 134.512 1.19792 134.356 0.881916C134.064 0.281916 133.96 0.161916 133.656 0.049916C133.492 -0.00608397 133.2 -0.018084 133.044 0.029916Z" fill="#4B4B4B"/>
</svg>
