<svg width="27" height="26" viewBox="0 0 27 26" fill="none" xmlns="http://www.w3.org/2000/svg">
<path d="M13.0437 0.029916C12.8797 0.081916 12.7077 0.181916 12.6157 0.281916C12.5637 0.333916 11.7037 2.04192 10.6997 4.07392C9.69574 6.10992 8.87174 7.77792 8.86774 7.78592C8.85974 7.78992 7.98375 7.92192 6.91974 8.07392C4.48774 8.42992 3.07574 8.63392 1.71574 8.83392C0.407744 9.02592 0.287744 9.07392 0.0877444 9.51392C-0.108256 9.94192 0.0197444 10.3259 0.515744 10.7979C0.787744 11.0579 4.94774 15.1059 5.79174 15.9339L6.11974 16.2539L5.86374 17.7339C5.44374 20.1859 4.97174 22.9259 4.83574 23.7339C4.71574 24.4379 4.71174 24.5099 4.76374 24.6939C4.84774 24.9939 5.15574 25.2899 5.45174 25.3539C5.76374 25.4259 5.91174 25.3779 6.62774 24.9979C6.95574 24.8259 8.33174 24.1019 9.68374 23.3939C11.0357 22.6859 12.3917 21.9699 12.6957 21.8099C12.9997 21.6459 13.2757 21.5139 13.3117 21.5139C13.3717 21.5139 13.6197 21.6419 17.5037 23.6859C21.0477 25.5499 20.6877 25.3739 20.9757 25.3699C21.4437 25.3699 21.8157 25.0539 21.8997 24.5899C21.9117 24.5099 21.8917 24.2539 21.8437 23.9899C21.8037 23.7379 21.6517 22.8499 21.5077 22.0139C21.3637 21.1779 21.0837 19.5419 20.8837 18.3739L20.5197 16.2539L21.0517 15.7339C21.3437 15.4459 22.5917 14.2339 23.8237 13.0339C26.4757 10.4579 26.4517 10.4819 26.5477 10.2859C26.6597 10.0659 26.6477 9.70592 26.5277 9.46192C26.4237 9.24592 26.1917 9.05392 25.9677 8.99792C25.8877 8.97392 24.0677 8.70592 21.9237 8.39392C19.7797 8.08592 17.9637 7.81792 17.8877 7.80592C17.7597 7.78592 17.7437 7.75792 17.4837 7.21792C17.3357 6.90992 16.6317 5.48192 15.9237 4.05392C15.2157 2.62192 14.5117 1.19792 14.3557 0.881916C14.0637 0.281916 13.9597 0.161916 13.6557 0.049916C13.4917 -0.00608397 13.1997 -0.018084 13.0437 0.029916Z" fill="#4B4B4B"/>
</svg>
