<?xml version="1.0" standalone="no"?>
<!DOCTYPE svg PUBLIC "-//W3C//DTD SVG 20010904//EN"
 "http://www.w3.org/TR/2001/REC-SVG-20010904/DTD/svg10.dtd">
<svg version="1.0" xmlns="http://www.w3.org/2000/svg"
 width="736.000000pt" height="751.000000pt" viewBox="0 0 736.000000 751.000000"
 preserveAspectRatio="xMidYMid meet">

<g transform="translate(0.000000,751.000000) scale(0.100000,-0.100000)"
fill="#000000" stroke="none">
<path fill="white" d="M3515 6684 c-191 -19 -259 -29 -385 -54 -350 -70 -678 -208 -990
-415 -173 -115 -273 -198 -426 -350 -430 -427 -704 -968 -800 -1575 -25 -161
-30 -559 -10 -735 53 -456 203 -865 457 -1243 123 -184 231 -313 392 -468 521
-504 1216 -784 1947 -784 951 0 1829 474 2352 1270 335 508 489 1085 457 1703
-26 502 -185 980 -464 1397 -119 178 -199 276 -359 436 -443 442 -985 710
-1616 799 -109 15 -469 28 -555 19z m-872 -1062 c255 -119 312 -449 110 -644
-199 -193 -515 -134 -640 120 -25 51 -28 67 -28 162 0 93 3 112 27 162 32 68
105 149 167 186 66 39 126 52 216 49 66 -3 94 -9 148 -35z m2221 -1041 c246
-65 401 -216 479 -466 60 -190 62 -231 62 -1035 l0 -735 -340 0 -340 0 -6 670
c-5 602 -7 676 -23 730 -44 149 -113 220 -243 252 -55 14 -78 15 -151 5 -195
-26 -299 -127 -337 -326 -12 -64 -15 -189 -15 -694 0 -340 -4 -623 -8 -630 -7
-9 -82 -12 -343 -10 l-334 3 -3 1099 c-2 873 0 1101 10 1108 22 13 622 10 636
-4 8 -8 12 -55 12 -145 l0 -133 108 108 c90 91 121 115 193 151 137 69 204 82
399 77 125 -3 184 -9 244 -25z m-2056 -29 c10 -7 12 -235 10 -1108 l-3 -1099
-340 0 -340 0 -3 1094 c-1 800 1 1097 9 1107 9 11 74 14 333 14 176 0 327 -4
334 -8z"/>
</g>
</svg>
