<?xml version="1.0" standalone="no"?>
<!DOCTYPE svg PUBLIC "-//W3C//DTD SVG 20010904//EN"
 "http://www.w3.org/TR/2001/REC-SVG-20010904/DTD/svg10.dtd">
<svg version="1.0" xmlns="http://www.w3.org/2000/svg"
 width="695.000000pt" height="788.000000pt" viewBox="0 0 695.000000 788.000000"
 preserveAspectRatio="xMidYMid meet">

<g transform="translate(0.000000,788.000000) scale(0.100000,-0.100000)"
fill="#000000" stroke="none">
<path fill="white" d="M3227 7170 c-569 -55 -1075 -258 -1517 -608 -116 -91 -341 -316 -434
-432 -438 -549 -652 -1217 -615 -1924 52 -999 642 -1899 1544 -2356 831 -421
1844 -397 2648 62 495 283 883 692 1136 1198 151 303 238 594 277 935 20 176
15 574 -10 735 -65 411 -216 801 -441 1139 -118 178 -198 276 -359 437 -435
434 -968 702 -1581 794 -158 24 -502 34 -648 20z m1588 -1632 l28 -22 -6 -110
c-8 -166 -95 -568 -353 -1636 -154 -640 -146 -611 -189 -649 -30 -26 -44 -31
-88 -31 -63 0 -76 7 -279 161 -126 96 -390 285 -434 312 -12 7 -154 -115 -324
-279 -58 -56 -120 -109 -138 -118 -40 -21 -70 -13 -78 21 -4 14 8 184 25 377
l33 351 37 35 c20 19 176 161 346 316 399 361 707 655 801 762 116 132 103
134 -96 15 -149 -89 -901 -557 -1273 -791 -115 -73 -218 -132 -230 -132 -12 0
-175 50 -362 111 -334 109 -380 129 -385 169 -11 85 17 100 605 327 401 155
2110 784 2235 823 48 15 96 11 125 -12z"/>
</g>
</svg>
